<?xml version="1.0" encoding="iso-8859-1"?>
<!-- Generator: Adobe Illustrator 19.0.0, SVG Export Plug-In . SVG Version: 6.00 Build 0)  -->
<svg version="1.1" id="Capa_1" xmlns="http://www.w3.org/2000/svg" xmlns:xlink="http://www.w3.org/1999/xlink" x="0px" y="0px" height="31" width="31" viewBox="0 0 512 512" style="enable-background:new 0 0 512 512;" xml:space="preserve">
    <g>
        <g>
            <path d="M468.542,71.474H291.759c-11.039,0-20.863-7.017-24.445-17.459l-3.725-10.858c-2.079-6.062-7.78-10.133-14.188-10.133
			H85.816c-6.408,0-12.109,4.071-14.188,10.133l-3.725,10.859c-3.582,10.442-13.405,17.458-24.445,17.458
			C19.495,71.474,0,90.969,0,114.932v320.584c0,23.964,19.495,43.459,43.458,43.459h425.084c23.963,0,43.458-19.495,43.458-43.459
			V114.932C512,90.969,492.505,71.474,468.542,71.474z M30,114.932c0-7.421,6.038-13.458,13.459-13.458
			c23.855,0,45.082-15.161,52.821-37.725l0.249-0.726h142.158l0.249,0.726c7.74,22.564,28.968,37.725,52.822,37.725h176.783
			c7.421,0,13.458,6.037,13.458,13.458v8.119H30V114.932z M482,435.516c0,7.421-6.037,13.459-13.458,13.459H43.458
			c-7.421,0-13.458-6.038-13.458-13.459V153.052h452V435.516z" />
        </g>
    </g>
    <g>
        <g>
            <path d="M279.716,290.461h-47.432c-24.813,0-45,20.187-45,45v51.565c0,22.533,18.332,40.866,40.865,40.866h55.701
			c22.533,0,40.865-18.333,40.865-40.866v-51.565C324.716,310.648,304.529,290.461,279.716,290.461z M294.716,387.026
			c0,5.991-4.874,10.866-10.865,10.866H228.15c-5.992,0.001-10.866-4.874-10.866-10.866v-51.565c0-8.271,6.729-15,15-15h47.432
			c8.271,0,15,6.729,15,15V387.026z" />
        </g>
    </g>
    <g>
        <g>
            <path d="M256,179.447c-29.073,0-52.727,23.653-52.727,52.727c0,29.074,23.654,52.725,52.727,52.725s52.727-23.652,52.727-52.726
			S285.073,179.447,256,179.447z M256,254.898c-12.531,0-22.727-10.194-22.727-22.726c0-12.532,10.196-22.726,22.727-22.726
			s22.727,10.195,22.727,22.727C278.727,244.706,268.531,254.898,256,254.898z" />
        </g>
    </g>
    <g>
    </g>
    <g>
    </g>
    <g>
    </g>
    <g>
    </g>
    <g>
    </g>
    <g>
    </g>
    <g>
    </g>
    <g>
    </g>
    <g>
    </g>
    <g>
    </g>
    <g>
    </g>
    <g>
    </g>
    <g>
    </g>
    <g>
    </g>
    <g>
    </g>
</svg>